<svg xmlns="http://www.w3.org/2000/svg" viewBox="0 0 280 220" fill="none" aria-label="Royal Results Crown">
  <defs>
    <linearGradient id="gBand" x1="0" y1="0" x2="0" y2="1">
      <stop offset="0%"  stop-color="#FFE97A"/>
      <stop offset="35%" stop-color="#D4950A"/>
      <stop offset="70%" stop-color="#A06808"/>
      <stop offset="100%" stop-color="#6B3E00"/>
    </linearGradient>
    <linearGradient id="gPoint" x1="0.15" y1="1" x2="0" y2="0">
      <stop offset="0%"  stop-color="#7A4E00"/>
      <stop offset="40%" stop-color="#C8900A"/>
      <stop offset="78%" stop-color="#FFE680"/>
      <stop offset="100%" stop-color="#C8900A"/>
    </linearGradient>
    <radialGradient id="gVelvet" cx="50%" cy="30%" r="65%">
      <stop offset="0%"  stop-color="#2244BB"/>
      <stop offset="55%" stop-color="#0E1E6A"/>
      <stop offset="100%" stop-color="#060D30"/>
    </radialGradient>
    <radialGradient id="gOrb" cx="35%" cy="25%" r="65%">
      <stop offset="0%"  stop-color="#FFFACC"/>
      <stop offset="50%" stop-color="#D4A010"/>
      <stop offset="100%" stop-color="#7A4E00"/>
    </radialGradient>
    <radialGradient id="gSaph" cx="30%" cy="25%" r="70%">
      <stop offset="0%"  stop-color="#6A9FFF"/>
      <stop offset="50%" stop-color="#1A3FAA"/>
      <stop offset="100%" stop-color="#091A55"/>
    </radialGradient>
    <radialGradient id="gPearl" cx="30%" cy="25%" r="70%">
      <stop offset="0%"  stop-color="#FFFFFF"/>
      <stop offset="60%" stop-color="#EDE5CC"/>
      <stop offset="100%" stop-color="#B8AA90"/>
    </radialGradient>
    <linearGradient id="gFleur" x1="0" y1="1" x2="0" y2="0">
      <stop offset="0%"  stop-color="#8B5E00"/>
      <stop offset="40%" stop-color="#C8900A"/>
      <stop offset="100%" stop-color="#FFE680"/>
    </linearGradient>
    <filter id="glow" x="-20%" y="-20%" width="140%" height="140%">
      <feGaussianBlur stdDeviation="2" result="b"/>
      <feMerge><feMergeNode in="b"/><feMergeNode in="SourceGraphic"/></feMerge>
    </filter>
    <filter id="glowSm" x="-12%" y="-12%" width="124%" height="124%">
      <feGaussianBlur stdDeviation="1" result="b"/>
      <feMerge><feMergeNode in="b"/><feMergeNode in="SourceGraphic"/></feMerge>
    </filter>
    <filter id="glowGold" x="-30%" y="-30%" width="160%" height="160%">
      <feGaussianBlur stdDeviation="3" result="b"/>
      <feColorMatrix in="b" type="matrix" values="1 0.6 0 0 0.1  0.7 0.4 0 0 0  0 0 0 0 0  0 0 0 0.5 0" result="golden"/>
      <feMerge><feMergeNode in="golden"/><feMergeNode in="SourceGraphic"/></feMerge>
    </filter>
    <filter id="shadow" x="-10%" y="-5%" width="120%" height="120%">
      <feDropShadow dx="0" dy="3" stdDeviation="4" flood-color="#3A2000" flood-opacity="0.5"/>
    </filter>
  </defs>

  <!-- VELVET CAP INTERIOR -->
  <path d="M54 148 C54 130 62 108 82 96 C97 86 117 80 140 79 C163 80 183 86 198 96 C218 108 226 130 226 148 Z"
        fill="url(#gVelvet)"/>
  <!-- Velvet pleats -->
  <line x1="140" y1="79"  x2="140" y2="148" stroke="#FFD95A" stroke-width="1.5" opacity="0.2"/>
  <line x1="108" y1="84"  x2="112" y2="148" stroke="#FFD95A" stroke-width="1"   opacity="0.13"/>
  <line x1="172" y1="84"  x2="168" y2="148" stroke="#FFD95A" stroke-width="1"   opacity="0.13"/>
  <line x1="80"  y1="108" x2="86"  y2="148" stroke="#FFD95A" stroke-width="0.8" opacity="0.1"/>
  <line x1="200" y1="108" x2="194" y2="148" stroke="#FFD95A" stroke-width="0.8" opacity="0.1"/>

  <!-- POINT 1 — Far Left (flares outward) -->
  <path d="M44 150 C40 138 32 120 22 102 C15 88 17 74 28 66 C35 62 44 65 50 72 C56 79 57 92 55 106 C53 120 53 136 54 150 Z"
        fill="url(#gPoint)" filter="url(#shadow)"/>
  <path d="M34 98 C29 86 31 74 38 68" stroke="#FFE97A" stroke-width="1.8" fill="none" opacity="0.55"/>
  <circle cx="24" cy="63" r="6" fill="url(#gOrb)" stroke="#C8900A" stroke-width="1.2" filter="url(#glowGold)"/>
  <circle cx="22" cy="61" r="2.2" fill="#FFFACC" opacity="0.7"/>

  <!-- POINT 2 — Left -->
  <path d="M78 150 C78 136 78 120 80 104 C82 88 87 72 92 62 C96 52 102 47 108 49 C114 51 116 60 116 72 C116 84 112 98 110 112 C108 126 106 140 104 150 Z"
        fill="url(#gPoint)" filter="url(#shadow)"/>
  <path d="M88 90 C86 76 90 62 96 56" stroke="#FFE97A" stroke-width="1.6" fill="none" opacity="0.5"/>
  <circle cx="100" cy="44" r="5.5" fill="url(#gOrb)" stroke="#C8900A" stroke-width="1.2" filter="url(#glowGold)"/>
  <circle cx="98"  cy="42" r="1.8" fill="#FFFACC" opacity="0.7"/>

  <!-- POINT 3 — Center Left -->
  <path d="M118 150 C118 136 119 120 121 104 C123 88 128 70 133 58 C136 48 138 42 140 40 C142 42 144 48 147 58 C152 70 157 88 159 104 C161 120 162 136 162 150 Z"
        fill="url(#gPoint)" filter="url(#shadow)"/>
  <path d="M129 88 C127 72 131 56 137 46" stroke="#FFE97A" stroke-width="1.6" fill="none" opacity="0.5"/>
  <!-- No orb here — center top fleur-de-lis takes this position -->

  <!-- POINT 4 — Center Right (mirror of 3, same shape) -->
  <!-- Shared with point 3 symmetric fill -->

  <!-- POINT 5 — Right -->
  <path d="M176 150 C174 140 172 126 170 112 C168 98 164 84 164 72 C164 60 166 51 172 49 C178 47 184 52 188 62 C193 72 198 88 200 104 C202 120 202 136 202 150 Z"
        fill="url(#gPoint)" filter="url(#shadow)"/>
  <path d="M192 90 C194 76 190 62 184 56" stroke="#FFE97A" stroke-width="1.6" fill="none" opacity="0.5"/>
  <circle cx="180" cy="44" r="5.5" fill="url(#gOrb)" stroke="#C8900A" stroke-width="1.2" filter="url(#glowGold)"/>
  <circle cx="178" cy="42" r="1.8" fill="#FFFACC" opacity="0.7"/>

  <!-- POINT 6 — Far Right (mirror of far left) -->
  <path d="M226 150 C227 136 227 120 225 106 C223 92 224 79 230 72 C236 65 245 62 252 66 C263 74 265 88 258 102 C248 120 240 138 236 150 Z"
        fill="url(#gPoint)" filter="url(#shadow)"/>
  <path d="M246 98 C251 86 249 74 242 68" stroke="#FFE97A" stroke-width="1.8" fill="none" opacity="0.55"/>
  <circle cx="256" cy="63" r="6" fill="url(#gOrb)" stroke="#C8900A" stroke-width="1.2" filter="url(#glowGold)"/>
  <circle cx="254" cy="61" r="2.2" fill="#FFFACC" opacity="0.7"/>

  <!-- CENTER TOP FLEUR-DE-LIS -->
  <!-- Vertical spine -->
  <rect x="137.5" y="58" width="5" height="52" rx="2" fill="url(#gFleur)" filter="url(#glowSm)"/>
  <rect x="138.8" y="59" width="2" height="50" rx="1" fill="#FFE97A" opacity="0.45"/>
  <!-- Orb collar -->
  <ellipse cx="140" cy="112" rx="10" ry="7" fill="url(#gOrb)" stroke="#C8900A" stroke-width="1.2" filter="url(#glowGold)"/>
  <ellipse cx="137" cy="110" rx="4" ry="2.5" fill="#FFFACC" opacity="0.45"/>
  <!-- Left lobe -->
  <path d="M140 80 C127 74 116 78 118 89 C120 98 131 101 140 99" fill="url(#gFleur)" filter="url(#glowGold)"/>
  <path d="M140 80 C129 76 120 80 122 89 C124 97 132 100 140 99" stroke="#FFE97A" stroke-width="0.8" fill="none" opacity="0.45"/>
  <!-- Right lobe -->
  <path d="M140 80 C153 74 164 78 162 89 C160 98 149 101 140 99" fill="url(#gFleur)" filter="url(#glowGold)"/>
  <path d="M140 80 C151 76 160 80 158 89 C156 97 148 100 140 99" stroke="#FFE97A" stroke-width="0.8" fill="none" opacity="0.45"/>
  <!-- Central upright petal -->
  <path d="M136 88 C134 73 136 60 140 54 C144 60 146 73 144 88 C143 94 141 99 140 99 C139 99 137 94 136 88 Z"
        fill="url(#gFleur)" filter="url(#glowGold)"/>
  <path d="M139.5 86 C138.5 73 139 62 140 56" stroke="#FFE97A" stroke-width="1" fill="none" opacity="0.55"/>
  <!-- Lobe curl tips -->
  <path d="M118 89 C114 87 112 92 115 95 C117 97 121 96 122 93" fill="#C8900A" opacity="0.85"/>
  <path d="M162 89 C166 87 168 92 165 95 C163 97 159 96 158 93" fill="#C8900A" opacity="0.85"/>

  <!-- FLEUR-DE-LIS ROW (5 fleurs against velvet) -->

  <!-- Fleur A — far left -->
  <g transform="translate(64,116) scale(0.72)">
    <path d="M0 38 C-13 30-19 16-15 7 C-11 1-4 3 0 10 C4 3 11 1 15 7 C19 16 13 30 0 38Z" fill="url(#gFleur)" filter="url(#glowSm)"/>
    <path d="M-15 7 C-17 3-15-1-11-1 C-9 3-11 7-15 7Z" fill="#C8900A"/>
    <path d="M15 7 C17 3 15-1 11-1 C9 3 11 7 15 7Z" fill="#C8900A"/>
    <ellipse cx="0" cy="-3" rx="4.5" ry="7" fill="url(#gFleur)"/>
    <rect x="-3" y="36" width="6" height="14" rx="1.5" fill="url(#gBand)"/>
  </g>

  <!-- Fleur B — center-left -->
  <g transform="translate(104,112) scale(0.72)">
    <path d="M0 38 C-13 30-19 16-15 7 C-11 1-4 3 0 10 C4 3 11 1 15 7 C19 16 13 30 0 38Z" fill="url(#gFleur)" filter="url(#glowSm)"/>
    <path d="M-15 7 C-17 3-15-1-11-1 C-9 3-11 7-15 7Z" fill="#C8900A"/>
    <path d="M15 7 C17 3 15-1 11-1 C9 3 11 7 15 7Z" fill="#C8900A"/>
    <ellipse cx="0" cy="-3" rx="4.5" ry="7" fill="url(#gFleur)"/>
    <rect x="-3" y="36" width="6" height="14" rx="1.5" fill="url(#gBand)"/>
  </g>

  <!-- Fleur C — center (larger) -->
  <g transform="translate(140,108) scale(0.82)">
    <path d="M0 40 C-14 32-21 17-17 7 C-13 0-5 2 0 10 C5 2 13 0 17 7 C21 17 14 32 0 40Z" fill="url(#gFleur)" filter="url(#glow)"/>
    <path d="M-17 7 C-19 2-17-2-13-2 C-11 2-13 7-17 7Z" fill="#C8900A"/>
    <path d="M17 7 C19 2 17-2 13-2 C11 2 13 7 17 7Z" fill="#C8900A"/>
    <ellipse cx="0" cy="-4" rx="5" ry="8" fill="url(#gFleur)"/>
    <rect x="-3.5" y="38" width="7" height="16" rx="2" fill="url(#gBand)"/>
  </g>

  <!-- Fleur D — center-right -->
  <g transform="translate(176,112) scale(0.72)">
    <path d="M0 38 C-13 30-19 16-15 7 C-11 1-4 3 0 10 C4 3 11 1 15 7 C19 16 13 30 0 38Z" fill="url(#gFleur)" filter="url(#glowSm)"/>
    <path d="M-15 7 C-17 3-15-1-11-1 C-9 3-11 7-15 7Z" fill="#C8900A"/>
    <path d="M15 7 C17 3 15-1 11-1 C9 3 11 7 15 7Z" fill="#C8900A"/>
    <ellipse cx="0" cy="-3" rx="4.5" ry="7" fill="url(#gFleur)"/>
    <rect x="-3" y="36" width="6" height="14" rx="1.5" fill="url(#gBand)"/>
  </g>

  <!-- Fleur E — far right -->
  <g transform="translate(216,116) scale(0.72)">
    <path d="M0 38 C-13 30-19 16-15 7 C-11 1-4 3 0 10 C4 3 11 1 15 7 C19 16 13 30 0 38Z" fill="url(#gFleur)" filter="url(#glowSm)"/>
    <path d="M-15 7 C-17 3-15-1-11-1 C-9 3-11 7-15 7Z" fill="#C8900A"/>
    <path d="M15 7 C17 3 15-1 11-1 C9 3 11 7 15 7Z" fill="#C8900A"/>
    <ellipse cx="0" cy="-3" rx="4.5" ry="7" fill="url(#gFleur)"/>
    <rect x="-3" y="36" width="6" height="14" rx="1.5" fill="url(#gBand)"/>
  </g>

  <!-- Pearl clusters between fleurs -->
  <g filter="url(#glowSm)">
    <circle cx="84"  cy="150" r="3.5" fill="url(#gPearl)" stroke="#C8B090" stroke-width="0.7"/>
    <circle cx="84"  cy="143" r="2.8" fill="url(#gPearl)" stroke="#C8B090" stroke-width="0.6"/>
    <circle cx="122" cy="150" r="3.5" fill="url(#gPearl)" stroke="#C8B090" stroke-width="0.7"/>
    <circle cx="122" cy="143" r="2.8" fill="url(#gPearl)" stroke="#C8B090" stroke-width="0.6"/>
    <circle cx="158" cy="150" r="3.5" fill="url(#gPearl)" stroke="#C8B090" stroke-width="0.7"/>
    <circle cx="158" cy="143" r="2.8" fill="url(#gPearl)" stroke="#C8B090" stroke-width="0.6"/>
    <circle cx="196" cy="150" r="3.5" fill="url(#gPearl)" stroke="#C8B090" stroke-width="0.7"/>
    <circle cx="196" cy="143" r="2.8" fill="url(#gPearl)" stroke="#C8B090" stroke-width="0.6"/>
  </g>

  <!-- BASE BAND — 3 tiered ridges -->
  <rect x="30" y="154" width="220" height="56" rx="6" fill="#3A2000" opacity="0.4"/>
  <!-- Lower tier -->
  <rect x="32" y="185" width="216" height="23" rx="4" fill="url(#gBand)" filter="url(#glowSm)"/>
  <rect x="32" y="185" width="216" height="3"  rx="2" fill="#FFE97A" opacity="0.55"/>
  <!-- Middle tier -->
  <rect x="34" y="170" width="212" height="18" rx="3" fill="url(#gBand)" filter="url(#glowSm)"/>
  <rect x="34" y="170" width="212" height="2.5" rx="1.5" fill="#FFE97A" opacity="0.5"/>
  <!-- Upper tier -->
  <rect x="36" y="157" width="208" height="16" rx="3" fill="url(#gBand)" filter="url(#glowSm)"/>
  <rect x="36" y="157" width="208" height="2"  rx="1" fill="#FFE97A" opacity="0.45"/>
  <!-- Rope braid top edge -->
  <path d="M40 157 Q52 153 64 157 Q76 161 88 157 Q100 153 112 157 Q124 161 136 157 Q148 153 160 157 Q172 161 184 157 Q196 153 208 157 Q220 161 232 157 Q240 154 244 157"
        stroke="#C8900A" stroke-width="1.5" fill="none" opacity="0.55"/>

  <!-- 3 SAPPHIRE GEMS -->
  <!-- Left -->
  <g filter="url(#glow)">
    <ellipse cx="90" cy="177" rx="10" ry="8" fill="url(#gSaph)" stroke="#4A6FCC" stroke-width="1.2"/>
    <ellipse cx="87" cy="174" rx="3.5" ry="2.5" fill="#9ABFFF" opacity="0.6"/>
    <circle cx="80"  cy="173" r="3"   fill="url(#gPearl)" stroke="#C8B090" stroke-width="0.7"/>
    <circle cx="80"  cy="181" r="3"   fill="url(#gPearl)" stroke="#C8B090" stroke-width="0.7"/>
    <circle cx="100" cy="173" r="3"   fill="url(#gPearl)" stroke="#C8B090" stroke-width="0.7"/>
    <circle cx="100" cy="181" r="3"   fill="url(#gPearl)" stroke="#C8B090" stroke-width="0.7"/>
  </g>
  <!-- Center (largest) -->
  <g filter="url(#glow)">
    <ellipse cx="140" cy="176" rx="13" ry="10" fill="url(#gSaph)" stroke="#4A6FCC" stroke-width="1.5"/>
    <ellipse cx="136" cy="173" rx="4.5" ry="3" fill="#9ABFFF" opacity="0.65"/>
    <circle cx="127" cy="172" r="3.2" fill="url(#gPearl)" stroke="#C8B090" stroke-width="0.7"/>
    <circle cx="127" cy="181" r="3.2" fill="url(#gPearl)" stroke="#C8B090" stroke-width="0.7"/>
    <circle cx="153" cy="172" r="3.2" fill="url(#gPearl)" stroke="#C8B090" stroke-width="0.7"/>
    <circle cx="153" cy="181" r="3.2" fill="url(#gPearl)" stroke="#C8B090" stroke-width="0.7"/>
  </g>
  <!-- Right -->
  <g filter="url(#glow)">
    <ellipse cx="190" cy="177" rx="10" ry="8" fill="url(#gSaph)" stroke="#4A6FCC" stroke-width="1.2"/>
    <ellipse cx="187" cy="174" rx="3.5" ry="2.5" fill="#9ABFFF" opacity="0.6"/>
    <circle cx="180" cy="173" r="3"   fill="url(#gPearl)" stroke="#C8B090" stroke-width="0.7"/>
    <circle cx="180" cy="181" r="3"   fill="url(#gPearl)" stroke="#C8B090" stroke-width="0.7"/>
    <circle cx="200" cy="173" r="3"   fill="url(#gPearl)" stroke="#C8B090" stroke-width="0.7"/>
    <circle cx="200" cy="181" r="3"   fill="url(#gPearl)" stroke="#C8B090" stroke-width="0.7"/>
  </g>

</svg>
